<svg xmlns="http://www.w3.org/2000/svg" version="1.1" xmlns:xlink="http://www.w3.org/1999/xlink" xmlns:svgjs="http://svgjs.com/svgjs" width="172" height="172"><svg width="172" height="172" viewBox="0 0 172 172" fill="none" xmlns="http://www.w3.org/2000/svg">
<g clip-path="url(#clip0_2261_331)">
<path d="M86.21 19H24.29C21.37 19 19 21.37 19 24.29V77.81H69.41C74.05 77.81 77.81 81.57 77.81 86.21C77.81 90.85 74.05 94.61 69.41 94.61H19V148.13C19 151.05 21.37 153.42 24.29 153.42H86.21C123.33 153.42 153.42 123.33 153.42 86.21C153.42 49.09 123.33 19 86.21 19ZM119.81 86.21C119.81 104.77 104.76 119.81 86.21 119.81H55.25C53.79 119.81 52.6 118.63 52.6 117.16V100.05H69.4C77.04 100.05 83.25 93.84 83.25 86.2C83.25 78.56 77.04 72.35 69.4 72.35H52.6V55.24C52.6 53.78 53.78 52.59 55.25 52.59H86.21C104.77 52.59 119.81 67.64 119.81 86.19V86.21Z" fill="#004DA0"></path>
<path d="M91.9099 42.3999H81.5699C80.2555 42.3999 79.1899 43.4655 79.1899 44.7799V55.1199C79.1899 56.4343 80.2555 57.4999 81.5699 57.4999H91.9099C93.2244 57.4999 94.2899 56.4343 94.2899 55.1199V44.7799C94.2899 43.4655 93.2244 42.3999 91.9099 42.3999Z" fill="#FF6E96"></path>
<path d="M69.23 57.29H58.89C57.5756 57.29 56.51 58.3556 56.51 59.67V70.01C56.51 71.3245 57.5756 72.39 58.89 72.39H69.23C70.5444 72.39 71.61 71.3245 71.61 70.01V59.67C71.61 58.3556 70.5444 57.29 69.23 57.29Z" fill="#FF0000"></path>
<path d="M110.63 69.96H97.1701C95.4635 69.96 94.0801 71.3434 94.0801 73.05V86.51C94.0801 88.2165 95.4635 89.6 97.1701 89.6H110.63C112.337 89.6 113.72 88.2165 113.72 86.51V73.05C113.72 71.3434 112.337 69.96 110.63 69.96Z" fill="#FF0000"></path>
<path d="M149.91 133.78H136.45C134.743 133.78 133.36 135.164 133.36 136.87V150.33C133.36 152.037 134.743 153.42 136.45 153.42H149.91C151.616 153.42 153 152.037 153 150.33V136.87C153 135.164 151.616 133.78 149.91 133.78Z" fill="#AF328C"></path>
<path d="M135.18 119.05H121.72C120.013 119.05 118.63 120.434 118.63 122.14V135.6C118.63 137.307 120.013 138.69 121.72 138.69H135.18C136.886 138.69 138.27 137.307 138.27 135.6V122.14C138.27 120.434 136.886 119.05 135.18 119.05Z" fill="#8CC31E"></path>
<path d="M120.45 104.32H106.99C105.283 104.32 103.9 105.704 103.9 107.41V120.87C103.9 122.577 105.283 123.96 106.99 123.96H120.45C122.156 123.96 123.54 122.577 123.54 120.87V107.41C123.54 105.704 122.156 104.32 120.45 104.32Z" fill="#FFAA2D"></path>
<path d="M120.45 133.78H106.99C105.283 133.78 103.9 135.164 103.9 136.87V150.33C103.9 152.037 105.283 153.42 106.99 153.42H120.45C122.156 153.42 123.54 152.037 123.54 150.33V136.87C123.54 135.164 122.156 133.78 120.45 133.78Z" fill="#00A0FF"></path>
<path d="M90.9899 133.78H77.5299C75.8234 133.78 74.4399 135.164 74.4399 136.87V150.33C74.4399 152.037 75.8234 153.42 77.5299 153.42H90.9899C92.6965 153.42 94.0799 152.037 94.0799 150.33V136.87C94.0799 135.164 92.6965 133.78 90.9899 133.78Z" fill="#00913C"></path>
<path d="M105.72 119.05H92.2599C90.5534 119.05 89.1699 120.434 89.1699 122.14V135.6C89.1699 137.307 90.5534 138.69 92.2599 138.69H105.72C107.426 138.69 108.81 137.307 108.81 135.6V122.14C108.81 120.434 107.426 119.05 105.72 119.05Z" fill="#FFDC00"></path>
<path d="M135.18 89.6001H121.72C120.013 89.6001 118.63 90.9835 118.63 92.6901V106.15C118.63 107.857 120.013 109.24 121.72 109.24H135.18C136.886 109.24 138.27 107.857 138.27 106.15V92.6901C138.27 90.9835 136.886 89.6001 135.18 89.6001Z" fill="#FF5514"></path>
</g>
<defs>
<clipPath id="SvgjsClipPath1000">
<rect width="134.42" height="134.42" fill="white" transform="translate(19 19)"></rect>
</clipPath>
</defs>
</svg><style>@media (prefers-color-scheme: light) { :root { filter: none; } }
</style></svg>